# xmcd
#
# Track frame offsets:
#	150
#	22617
#	33798
#	47580
#	67136
#	105701
#	119798
#	130524
#	144923
#	158725
#	176816
# Disc length: 2594 seconds
# Revision: 1
# Processed by: cddbd v1.5PL3 Copyright (c) Steve Scherf et al.
#
# Submitted via: libkcddb 0.10
#
DISCID=8c0a200b
DTITLE=Jumpin' Hailstones - Jumpin' Hailstones
DYEAR=1900
DGENRE=Unknown
TTITLE0=Baby, How Long
TTITLE1=Mean Old Frisco Blues
TTITLE2=I Don't Know Why
TTITLE3=I Wish You Would
TTITLE4=If Trouble Were Money
TTITLE5=Off The Wall
TTITLE6=Rockin'
TTITLE7=Stop Talking And Start Walking
TTITLE8=One More Chance With You
TTITLE9=Rainin' In My Heart
TTITLE10=Lollipop Mama
EXTD=
EXTT0=
EXTT1=
EXTT2=
EXTT3=
EXTT4=
EXTT5=
EXTT6=
EXTT7=
EXTT8=
EXTT9=
EXTT10=
PLAYORDER=
